<svg version="1.1" xmlns="http://www.w3.org/2000/svg" viewBox="0 0 510.9999999999999 311.6515651895663" width="510.9999999999999" height="311.6515651895663">
  <!-- svg-source:excalidraw -->
  
  <defs>
    <style class="style-fonts">
      @font-face {
        font-family: "Virgil";
        src: url("https://excalidraw.com/Virgil.woff2");
      }
      @font-face {
        font-family: "Cascadia";
        src: url("https://excalidraw.com/Cascadia.woff2");
      }
    </style>
    
  </defs>
  <g stroke-linecap="round" transform="translate(10 10) rotate(0 245.49999999999994 145.82578259478316)"><path d="M32 0 M32 0 C141.17 0.78, 251.7 1.16, 459 0 M32 0 C170.75 -0.49, 308.83 -0.89, 459 0 M459 0 C481.08 1.7, 490.82 9.64, 491 32 M459 0 C478.38 0.23, 490.44 8.43, 491 32 M491 32 C491.51 107.26, 493.38 186.69, 491 259.65 M491 32 C493.12 98.78, 491.98 166.01, 491 259.65 M491 259.65 C489.96 279.55, 481.62 293.38, 459 291.65 M491 259.65 C489.55 278.85, 482.53 293.77, 459 291.65 M459 291.65 C339.24 290.14, 217.01 288.82, 32 291.65 M459 291.65 C357.09 290.73, 255.79 289.99, 32 291.65 M32 291.65 C10.91 289.79, 0.71 282.4, 0 259.65 M32 291.65 C9.38 293.91, -2.29 281.81, 0 259.65 M0 259.65 C-2.95 167.72, -0.22 78.55, 0 32 M0 259.65 C0.06 175.63, 0.49 90.95, 0 32 M0 32 C1.33 10.09, 9.7 -1.28, 32 0 M0 32 C1.9 12.01, 11.3 -2.07, 32 0" stroke="#aa2233" stroke-width="1" fill="none"></path></g><g stroke-linecap="round" transform="translate(28.765338491935836 27.722788661998408) rotate(0 109.86246282476071 62.354370792431766)"><path d="M31.18 0 M31.18 0 C72.88 0.62, 111.38 0.83, 188.55 0 M31.18 0 C84.05 -1.04, 136.53 0.08, 188.55 0 M188.55 0 C209.16 -1.03, 218.03 10.6, 219.72 31.18 M188.55 0 C208.77 -2.24, 220.6 11.56, 219.72 31.18 M219.72 31.18 C221.18 45.43, 219.42 59.33, 219.72 93.53 M219.72 31.18 C219.38 45.76, 219.59 58.55, 219.72 93.53 M219.72 93.53 C221.01 116.04, 208.07 122.85, 188.55 124.71 M219.72 93.53 C221.93 116.43, 208.93 123.96, 188.55 124.71 M188.55 124.71 C155.55 124.5, 123.81 127.55, 31.18 124.71 M188.55 124.71 C149.92 124.75, 111.52 124.67, 31.18 124.71 M31.18 124.71 C11.1 126.13, -1.12 116.28, 0 93.53 M31.18 124.71 C8.1 125.53, 2.23 116.38, 0 93.53 M0 93.53 C2.23 74.3, 1.88 55.75, 0 31.18 M0 93.53 C0.53 78.62, 0.62 61.74, 0 31.18 M0 31.18 C-0.97 9.11, 12.04 1.17, 31.18 0 M0 31.18 C0.64 8.32, 10.41 1.27, 31.18 0" stroke="#aa2233" stroke-width="1" fill="none"></path></g><g transform="translate(55.15788401933321 77.57715945443016) rotate(0 83.46991729736328 12.5)"><text x="83.46991729736328" y="0" font-family="Virgil, Segoe UI Emoji" font-size="20px" fill="#aa2233" text-anchor="middle" style="white-space: pre;" direction="ltr" dominant-baseline="text-before-edge">&lt;Left Container&gt;</text></g><g stroke-linecap="round" transform="translate(265.3160467362404 25.743284827318092) rotate(0 109.86246282476071 62.354370792431766)"><path d="M31.18 0 M31.18 0 C74.99 0.26, 118.52 1.5, 188.55 0 M31.18 0 C86.42 1.29, 140.83 -0.07, 188.55 0 M188.55 0 C207.63 0.2, 219.24 8.45, 219.72 31.18 M188.55 0 C210.2 1.17, 217.71 9.75, 219.72 31.18 M219.72 31.18 C220.1 45.45, 218.74 57.66, 219.72 93.53 M219.72 31.18 C218.75 49.23, 219.91 69.57, 219.72 93.53 M219.72 93.53 C218.47 112.46, 211.25 126.55, 188.55 124.71 M219.72 93.53 C219.32 113.57, 207.07 126.72, 188.55 124.71 M188.55 124.71 C129.88 125.56, 72.61 122.52, 31.18 124.71 M188.55 124.71 C132.49 122.44, 76.54 124.08, 31.18 124.71 M31.18 124.71 C9.27 126.67, -1.99 115.03, 0 93.53 M31.18 124.71 C12.63 126.78, 0.07 112.7, 0 93.53 M0 93.53 C0.88 80.4, -1.51 67.4, 0 31.18 M0 93.53 C0.31 69.51, -0.84 45.42, 0 31.18 M0 31.18 C1.65 11.56, 10.95 -1.8, 31.18 0 M0 31.18 C0.02 11.66, 10.57 1.28, 31.18 0" stroke="#aa2233" stroke-width="1" fill="none"></path></g><g stroke-linecap="round" transform="translate(26.78583465725535 159.85466962691328) rotate(0 229.12756886425325 62.35437079243178)"><path d="M31.18 0 M31.18 0 C155 0.46, 278.61 -0.07, 427.08 0 M31.18 0 C138.87 -2.22, 246.19 -1.87, 427.08 0 M427.08 0 C447.37 -1.94, 459.01 11.41, 458.26 31.18 M427.08 0 C445.85 -0.64, 456.01 12.27, 458.26 31.18 M458.26 31.18 C456.72 54.21, 458.23 73.34, 458.26 93.53 M458.26 31.18 C458.57 54.09, 457.3 74.34, 458.26 93.53 M458.26 93.53 C460.17 116.16, 447.51 124.06, 427.08 124.71 M458.26 93.53 C456 116.33, 449.35 123.28, 427.08 124.71 M427.08 124.71 C332.01 126.07, 238.85 126.71, 31.18 124.71 M427.08 124.71 C342.2 123, 256.59 123.16, 31.18 124.71 M31.18 124.71 C8.4 125.42, 1.94 116.11, 0 93.53 M31.18 124.71 C10.46 123.09, -2.06 116.37, 0 93.53 M0 93.53 C-1.4 76.02, 1.16 59.41, 0 31.18 M0 93.53 C-0.9 68.95, 0.41 46.24, 0 31.18 M0 31.18 C0.55 8.59, 10.41 1.11, 31.18 0 M0 31.18 C0.18 11.67, 12.55 -0.62, 31.18 0" stroke="#aa2233" stroke-width="1" fill="none"></path></g><g transform="translate(214.83869895189093 215.77565295663396) rotate(0 42.239959716796875 12.5)"><text x="42.239959716796875" y="0" font-family="Virgil, Segoe UI Emoji" font-size="20px" fill="#aa2233" text-anchor="middle" style="white-space: pre;" direction="ltr" dominant-baseline="text-before-edge">Click Me!</text></g><g transform="translate(290.55472062841534 78.20013644634795) rotate(0 86.06990814208984 12.5)"><text x="86.06990814208984" y="0" font-family="Virgil, Segoe UI Emoji" font-size="20px" fill="#aa2233" text-anchor="middle" style="white-space: pre;" direction="ltr" dominant-baseline="text-before-edge">&lt;Right Container&gt;</text></g></svg>